#!OML:ASF X:\für Bonn\!DataBase\2005_08_10_Bjorn_Final\c3d\bjorn.ASF
:FULLY-SPECIFIED
:DEGREES
169
root -19.2428 19.2101 -1.95188 1437.75 -60.7699 3.97627
lowerback -6.7952 5.24569 -1.00851
upperback 6.4848 7.76577 -7.33306
thorax 11.8189 3.9814 -6.12264
lowerneck -0.396112 -11.8748 2.96562
upperneck 8.72288 -16.446 4.53002
head 3.04673 -7.9738 0.499721
rclavicle -7.63333e-014 7.95139e-015
rhumerus 30.039 -20.3268 -52.1335
rradius 65.2829
rwrist -23.3092
rhand -20.5554 17.8035
rfingers 7.12502
rthumb 5.80357 -12.097
lclavicle -7.63333e-014 7.95139e-015
lhumerus -30.4383 -7.13141 80.2201
lradius 28.9142
lwrist -10.2481
lhand -24.2859 -6.30607
lfingers 7.12502
lthumb 2.20122 23.6623
rfemur -4.50332 8.16718 12.8852
rtibia 24.1926
rfoot -2.95318 37.8652
rtoes 13.6444
lfemur -19.6507 -5.65121 -17.2277
ltibia 29.9655
lfoot -0.145749 -24.1053
ltoes 7.01388
170
root -19.1916 19.2065 -2.00485 1437.77 -60.1271 4.0325
lowerback -6.59053 5.15488 -0.799407
upperback 6.54557 7.60861 -7.26629
thorax 11.7632 3.92353 -6.2089
lowerneck -0.306892 -11.8161 2.87809
upperneck 8.63301 -16.3406 4.43279
head 2.99596 -7.92981 0.495686
rclavicle 3.33958e-014 1.11319e-014
rhumerus 30.2034 -21.5594 -54.104
rradius 67.5074
rwrist -23.0896
rhand -21.7468 17.66
rfingers 7.12502
rthumb 4.65324 -12.2689
lclavicle 3.33958e-014 1.11319e-014
lhumerus -30.4308 -7.00898 80.4158
lradius 29.1348
lwrist -10.2148
lhand -24.3908 -6.45497
lfingers 7.12502
lthumb 2.09989 23.5144
rfemur -4.55594 7.90122 12.9029
rtibia 23.9976
rfoot -3.1013 37.5622
rtoes 13.9934
lfemur -20.0628 -5.99341 -17.2303
ltibia 29.9802
lfoot 0.268305 -24.2563
ltoes 7.21665
171
root -19.1386 19.2046 -2.05726 1437.86 -59.4767 4.00427
lowerback -6.36237 5.04055 -0.526031
upperback 6.59303 7.41009 -7.18175
thorax 11.6778 3.85018 -6.32009
lowerneck -0.206144 -11.728 2.75004
upperneck 8.57874 -16.1955 4.31355
head 2.9563 -7.86672 0.491253
rclavicle -2.66371e-014 6.67916e-014
rhumerus 30.343 -22.6275 -56.0258
rradius 69.825
rwrist -22.9059
rhand -22.965 17.401
rfingers 7.12502
rthumb 3.47687 -12.5504
lclavicle -2.66371e-014 6.67916e-014
lhumerus -30.4533 -6.79113 80.6096
lradius 29.3194
lwrist -10.2184
lhand -24.5069 -6.63075
lfingers 7.12502
lthumb 1.98778 23.3397
rfemur -4.63104 7.55466 12.9684
rtibia 23.8514
rfoot -3.24335 37.2664
rtoes 14.1204
lfemur -20.4379 -6.34067 -17.1964
ltibia 29.9503
lfoot 0.669226 -24.4417
ltoes 7.40912
172
root -19.0851 19.2047 -2.10952 1437.92 -58.8183 4.01595
lowerback -6.14721 4.93163 -0.286724
upperback 6.64961 7.22334 -7.07776
thorax 11.6031 3.77811 -6.38662
lowerneck -0.0979584 -11.6503 2.58534
upperneck 8.50709 -16.0612 4.18365
head 2.91175 -7.81069 0.489604
rclavicle 5.48646e-014 -5.88403e-014
rhumerus 30.5238 -23.6599 -57.9866
rradius 72.1562
rwrist -22.6427
rhand -24.1798 17.2175
rfingers 7.12502
rthumb 2.30373 -12.7498
lclavicle 5.48646e-014 -5.88403e-014
lhumerus -30.4996 -6.62569 80.8705
lradius 29.5223
lwrist -10.1517
lhand -24.5852 -6.84093
lfingers 7.12502
lthumb 1.91223 23.1302
rfemur -4.73917 7.19567 13.011
rtibia 23.7588
rfoot -3.55258 36.8583
rtoes 13.8929
lfemur -20.7982 -6.61547 -17.1974
ltibia 29.8719
lfoot 1.25207 -24.6844
ltoes 8.08332
173
root -19.0313 19.2071 -2.16246 1437.95 -58.1352 4.06206
lowerback -5.93085 4.82647 -0.0732369
upperback 6.703 7.04492 -6.97199
thorax 11.5205 3.70726 -6.43453
lowerneck 0.0484956 -11.5669 2.35984
upperneck 8.40425 -15.9221 4.12987
head 2.86255 -7.75319 0.523198
rclavicle -3.81667e-014 -6.36111e-014
rhumerus 30.7045 -24.6664 -59.993
rradius 74.5193
rwrist -22.2234
rhand -25.4036 17.0013
rfingers 7.12502
rthumb 1.12179 -12.9755
lclavicle -3.81667e-014 -6.36111e-014
lhumerus -30.5312 -6.48162 81.1699
lradius 29.6638
lwrist -10.0635
lhand -24.7467 -7.02777
lfingers 7.12502
lthumb 1.75623 22.9448
rfemur -4.88018 6.82101 13.03
rtibia 23.7132
rfoot -4.01356 36.3395
rtoes 13.3389
lfemur -21.1377 -6.87327 -17.2331
ltibia 29.7438
lfoot 1.84696 -24.9532
ltoes 8.63794
174
root -18.9768 19.2123 -2.21575 1438.01 -57.4383 4.06543
lowerback -5.72332 4.70745 0.169723
upperback 6.75813 6.84617 -6.86518
thorax 11.4458 3.62893 -6.50037
lowerneck 0.14087 -11.4759 2.16822
upperneck 8.3645 -15.7749 4.00663
head 2.83462 -7.68974 0.525331
rclavicle 1.31198e-014 4.77083e-014
rhumerus 30.8242 -25.5174 -61.9453
rradius 76.8946
rwrist -21.8626
rhand -26.7281 17.0007
rfingers 7.12502
rthumb -0.157465 -12.979
lclavicle 1.31198e-014 4.77083e-014
lhumerus -30.5918 -6.29578 81.4506
lradius 29.8129
lwrist -10.0015
lhand -24.9297 -7.24504
lfingers 7.12502
lthumb 1.57945 22.7289
rfemur -5.05933 6.43825 13.0781
rtibia 23.7267
rfoot -4.58658 35.7172
rtoes 12.3845
lfemur -21.4547 -7.12896 -17.2515
ltibia 29.5594
lfoot 2.35225 -25.2278
ltoes 8.86918
175
root -18.9219 19.2214 -2.26848 1438.09 -56.7386 4.0693
lowerback -5.5069 4.60095 0.405642
upperback 6.7779 6.66366 -6.75452
thorax 11.3251 3.55644 -6.55481
lowerneck 0.325912 -11.3926 2.00186
upperneck 8.3045 -15.6339 3.87467
head 2.78047 -7.63104 0.527873
rclavicle 9.85972e-014 -7.95139e-014
rhumerus 30.7129 -26.2411 -63.7388
rradius 79.3134
rwrist -21.6212
rhand -28.147 17.2628
rfingers 7.12502
rthumb -1.52789 -12.7115
lclavicle 9.85972e-014 -7.95139e-014
lhumerus -30.712 -6.07018 81.7432
lradius 29.9485
lwrist -10.0305
lhand -25.0484 -7.341
lfingers 7.12502
lthumb 1.4648 22.6337
rfemur -5.28414 5.99046 13.1148
rtibia 23.7864
rfoot -5.20865 35.169
rtoes 11.1359
lfemur -21.7597 -7.29575 -17.2914
ltibia 29.3258
lfoot 2.75568 -25.563
ltoes 8.5195
176
root -18.8676 19.2298 -2.32148 1438.15 -56.0367 4.10699
lowerback -5.33545 4.49976 0.63012
upperback 6.82373 6.49537 -6.66514
thorax 11.265 3.49145 -6.62106
lowerneck 0.461391 -11.3133 1.92366
upperneck 8.22602 -15.4978 3.69914
head 2.71744 -7.57299 0.501827
rclavicle 6.87795e-014 -6.20208e-014
rhumerus 30.5617 -26.9847 -65.5311
rradius 81.7318
rwrist -21.2799
rhand -29.4229 17.6606
rfingers 7.12502
rthumb -2.76014 -12.3013
lclavicle 6.87795e-014 -6.20208e-014
lhumerus -30.789 -5.79129 81.9888
lradius 30.0845
lwrist -10.1058
lhand -25.1928 -7.43913
lfingers 7.12502
lthumb 1.32534 22.5365
rfemur -5.53627 5.57622 13.1243
rtibia 23.8742
rfoot -5.59619 34.6082
rtoes 10.5961
lfemur -22.0513 -7.41286 -17.3642
ltibia 29.0566
lfoot 3.13358 -25.8827
ltoes 8.05865
177
root -18.8126 19.2415 -2.37318 1438.27 -55.312 4.07185
lowerback -5.14663 4.40331 0.900122
upperback 6.84613 6.32835 -6.5745
thorax 11.1726 3.43015 -6.71205
lowerneck 0.601831 -11.2314 1.87956
upperneck 8.16235 -15.3604 3.51968
head 2.65572 -7.51305 0.469364
rclavicle 6.2816e-014 1.59028e-014
rhumerus 30.2674 -27.6871 -67.2844
rradius 84.1942
rwrist -20.9981
rhand -30.5421 18.2964
rfingers 7.12502
rthumb -3.84094 -11.6487
lclavicle 6.2816e-014 1.59028e-014
lhumerus -30.8971 -5.55677 82.2478
lradius 30.1966
lwrist -10.19
lhand -25.3766 -7.49096
lfingers 7.12502
lthumb 1.14787 22.4857
rfemur -5.81401 5.12002 13.1729
rtibia 23.986
rfoot -6.05067 34.0875
rtoes 9.78917
lfemur -22.338 -7.4503 -17.4221
ltibia 28.7657
lfoot 3.45019 -26.1772
ltoes 7.21263
178
root -18.7578 19.2539 -2.42422 1438.4 -54.6269 4.03922
lowerback -4.99024 4.33942 1.19409
upperback 6.88242 6.20738 -6.49931
thorax 11.1273 3.39459 -6.8243
lowerneck 0.692472 -11.1503 1.86967
upperneck 8.08268 -15.2262 3.34181
head 2.59516 -7.45319 0.429596
rclavicle 4.8901e-014 -6.52014e-014
rhumerus 29.9716 -28.4171 -69.0684
rradius 86.5965
rwrist -20.7913
rhand -31.4346 18.8886
rfingers 7.12502
rthumb -4.70279 -11.0392
lclavicle 4.8901e-014 -6.52014e-014
lhumerus -30.9475 -5.4187 82.4976
lradius 30.2707
lwrist -10.2768
lhand -25.5026 -7.62001
lfingers 7.12502
lthumb 1.02619 22.3573
rfemur -6.13141 4.68579 13.2117
rtibia 24.113
rfoot -6.37073 33.5898
rtoes 9.33007
lfemur -22.6071 -7.45343 -17.4846
ltibia 28.4661
lfoot 3.60185 -26.3589
ltoes 6.12672
179
root -18.7025 19.2661 -2.47404 1438.56 -53.9066 4.00763
lowerback -4.87074 4.26321 1.46655
upperback 6.93058 6.07316 -6.41262
thorax 11.1109 3.35048 -6.91145
lowerneck 0.66738 -11.0718 1.95216
upperneck 8.08405 -15.0965 3.0466
head 2.5645 -7.39226 0.330987
rclavicle -4.01545e-014 -2.54444e-014
rhumerus 29.6129 -29.1103 -70.8145
rradius 89.0259
rwrist -20.6618
rhand -32.3057 19.5043
rfingers 7.12502
rthumb -5.54392 -10.4032
lclavicle -4.01545e-014 -2.54444e-014
lhumerus -30.9454 -5.24377 82.7672
lradius 30.2629
lwrist -10.4737
lhand -25.5844 -7.70925
lfingers 7.12502
lthumb 0.947124 22.2684
rfemur -6.47078 4.21986 13.2431
rtibia 24.2425
rfoot -6.618 33.1153
rtoes 9.04957
lfemur -22.8975 -7.30664 -17.5909
ltibia 28.1743
lfoot 3.76879 -26.4817
ltoes 5.04191
180
root -18.6479 19.2786 -2.52262 1438.73 -53.1801 3.94018
lowerback -4.74289 4.1956 1.77169
upperback 6.98558 5.94836 -6.32756
thorax 11.1023 3.31411 -7.01799
lowerneck 0.60398 -10.9813 2.08366
upperneck 8.09403 -14.9525 2.73409
head 2.53867 -7.3228 0.217738
rclavicle -4.65156e-014 -7.95139e-015
rhumerus 29.1785 -29.7737 -72.5472
rradius 91.4665
rwrist -20.6577
rhand -33.261 19.9576
rfingers 7.12502
rthumb -6.46617 -9.92373
lclavicle -4.65156e-014 -7.95139e-015
lhumerus -30.9233 -5.22306 83.0654
lradius 30.1609
lwrist -10.7695
lhand -25.7022 -7.77326
lfingers 7.12502
lthumb 0.833325 22.2049
rfemur -6.77582 3.75028 13.2973
rtibia 24.3576
rfoot -6.94528 32.6194
rtoes 8.53272
lfemur -23.1494 -7.09826 -17.6888
ltibia 27.9108
lfoot 3.97797 -26.4853
ltoes 4.29656
181
root -18.593 19.2894 -2.57076 1438.87 -52.4697 3.91149
lowerback -4.63851 4.12311 1.98093
upperback 7.04518 5.82187 -6.18281
thorax 11.092 3.26505 -7.00157
lowerneck 0.488311 -10.8929 2.15993
upperneck 8.14554 -14.8095 2.35623
head 2.5356 -7.2554 0.0880659
rclavicle -9.58142e-014 -1.43125e-014
rhumerus 28.7029 -30.314 -74.1338
rradius 93.8913
rwrist -20.7398
rhand -34.2607 20.1848
rfingers 7.12502
rthumb -7.43121 -9.66472
lclavicle -9.58142e-014 -1.43125e-014
lhumerus -30.8593 -5.0748 83.4525
lradius 29.9179
lwrist -11.2201
lhand -25.7671 -7.84725
lfingers 7.12502
lthumb 0.770725 22.1311
rfemur -7.08734 3.29735 13.3198
rtibia 24.4617
rfoot -7.20934 32.1657
rtoes 8.08088
lfemur -23.3958 -6.81424 -17.837
ltibia 27.678
lfoot 4.16155 -26.3176
ltoes 3.66961
